<mxfile host="app.diagrams.net" modified="2023-04-27T20:29:56.974Z" agent="Mozilla/5.0 (Windows NT 10.0; Win64; x64) AppleWebKit/537.36 (KHTML, like Gecko) Chrome/112.0.0.0 Safari/537.36" etag="sfCjYpqTE7ZLCjNCEdsF" version="21.2.3" type="device">
  <diagram name="Страница 1" id="337LWuMVQq92PryhSmfu">
    <mxGraphModel dx="1050" dy="549" grid="1" gridSize="10" guides="1" tooltips="1" connect="1" arrows="1" fold="1" page="1" pageScale="1" pageWidth="827" pageHeight="1169" math="0" shadow="0">
      <root>
        <mxCell id="0" />
        <mxCell id="1" parent="0" />
        <mxCell id="7U7Kn77SNxa2jXnck1T4-5" style="edgeStyle=orthogonalEdgeStyle;rounded=0;orthogonalLoop=1;jettySize=auto;html=1;entryX=0.5;entryY=0;entryDx=0;entryDy=0;" edge="1" parent="1" source="7U7Kn77SNxa2jXnck1T4-1" target="7U7Kn77SNxa2jXnck1T4-2">
          <mxGeometry relative="1" as="geometry" />
        </mxCell>
        <mxCell id="7U7Kn77SNxa2jXnck1T4-1" value="start" style="ellipse;whiteSpace=wrap;html=1;" vertex="1" parent="1">
          <mxGeometry x="340" y="70" width="120" height="80" as="geometry" />
        </mxCell>
        <mxCell id="7U7Kn77SNxa2jXnck1T4-6" style="edgeStyle=orthogonalEdgeStyle;rounded=0;orthogonalLoop=1;jettySize=auto;html=1;entryX=0.5;entryY=0;entryDx=0;entryDy=0;" edge="1" parent="1" source="7U7Kn77SNxa2jXnck1T4-2">
          <mxGeometry relative="1" as="geometry">
            <mxPoint x="400" y="325" as="targetPoint" />
          </mxGeometry>
        </mxCell>
        <mxCell id="7U7Kn77SNxa2jXnck1T4-2" value="start = 0&lt;br&gt;arr =&amp;nbsp;[“Hello”, “2”, “world”, “:-)”]&lt;br&gt;end =[]" style="shape=parallelogram;perimeter=parallelogramPerimeter;whiteSpace=wrap;html=1;fixedSize=1;" vertex="1" parent="1">
          <mxGeometry x="285" y="210" width="230" height="80" as="geometry" />
        </mxCell>
        <mxCell id="7U7Kn77SNxa2jXnck1T4-11" style="edgeStyle=orthogonalEdgeStyle;rounded=0;orthogonalLoop=1;jettySize=auto;html=1;exitX=0.5;exitY=1;exitDx=0;exitDy=0;entryX=0.5;entryY=0;entryDx=0;entryDy=0;" edge="1" parent="1" target="7U7Kn77SNxa2jXnck1T4-8">
          <mxGeometry relative="1" as="geometry">
            <mxPoint x="400" y="435" as="sourcePoint" />
          </mxGeometry>
        </mxCell>
        <mxCell id="7U7Kn77SNxa2jXnck1T4-18" style="edgeStyle=orthogonalEdgeStyle;rounded=0;orthogonalLoop=1;jettySize=auto;html=1;entryX=0;entryY=0.5;entryDx=0;entryDy=0;" edge="1" parent="1" target="7U7Kn77SNxa2jXnck1T4-17">
          <mxGeometry relative="1" as="geometry">
            <mxPoint x="455" y="380" as="sourcePoint" />
          </mxGeometry>
        </mxCell>
        <mxCell id="7U7Kn77SNxa2jXnck1T4-4" value="Пример основан на 1 массиве. Если массив будет меняться&amp;nbsp; то будет меняться размер но логика такая же" style="text;html=1;strokeColor=none;fillColor=none;align=center;verticalAlign=middle;whiteSpace=wrap;rounded=0;" vertex="1" parent="1">
          <mxGeometry x="50" y="140" width="210" height="60" as="geometry" />
        </mxCell>
        <mxCell id="7U7Kn77SNxa2jXnck1T4-12" style="edgeStyle=orthogonalEdgeStyle;rounded=0;orthogonalLoop=1;jettySize=auto;html=1;" edge="1" parent="1" source="7U7Kn77SNxa2jXnck1T4-8">
          <mxGeometry relative="1" as="geometry">
            <mxPoint x="240" y="510" as="targetPoint" />
          </mxGeometry>
        </mxCell>
        <mxCell id="7U7Kn77SNxa2jXnck1T4-21" style="edgeStyle=orthogonalEdgeStyle;rounded=0;orthogonalLoop=1;jettySize=auto;html=1;" edge="1" parent="1" source="7U7Kn77SNxa2jXnck1T4-8">
          <mxGeometry relative="1" as="geometry">
            <mxPoint x="400" y="610" as="targetPoint" />
          </mxGeometry>
        </mxCell>
        <mxCell id="7U7Kn77SNxa2jXnck1T4-8" value="длина arr[size] &amp;gt;=3" style="ellipse;whiteSpace=wrap;html=1;aspect=fixed;" vertex="1" parent="1">
          <mxGeometry x="345" y="455" width="110" height="110" as="geometry" />
        </mxCell>
        <mxCell id="7U7Kn77SNxa2jXnck1T4-15" style="edgeStyle=orthogonalEdgeStyle;rounded=0;orthogonalLoop=1;jettySize=auto;html=1;entryX=0;entryY=0.5;entryDx=0;entryDy=0;" edge="1" parent="1" source="7U7Kn77SNxa2jXnck1T4-14">
          <mxGeometry relative="1" as="geometry">
            <mxPoint x="345" y="380" as="targetPoint" />
            <Array as="points">
              <mxPoint x="180" y="430" />
              <mxPoint x="181" y="430" />
              <mxPoint x="181" y="380" />
            </Array>
          </mxGeometry>
        </mxCell>
        <mxCell id="7U7Kn77SNxa2jXnck1T4-14" value="size+1" style="rounded=0;whiteSpace=wrap;html=1;" vertex="1" parent="1">
          <mxGeometry x="120" y="480" width="120" height="60" as="geometry" />
        </mxCell>
        <mxCell id="7U7Kn77SNxa2jXnck1T4-16" value="да" style="text;html=1;strokeColor=none;fillColor=none;align=center;verticalAlign=middle;whiteSpace=wrap;rounded=0;" vertex="1" parent="1">
          <mxGeometry x="350" y="430" width="60" height="30" as="geometry" />
        </mxCell>
        <mxCell id="7U7Kn77SNxa2jXnck1T4-28" value="" style="edgeStyle=orthogonalEdgeStyle;rounded=0;orthogonalLoop=1;jettySize=auto;html=1;" edge="1" parent="1" source="7U7Kn77SNxa2jXnck1T4-17" target="7U7Kn77SNxa2jXnck1T4-27">
          <mxGeometry relative="1" as="geometry" />
        </mxCell>
        <mxCell id="7U7Kn77SNxa2jXnck1T4-17" value="выводим end" style="rounded=0;whiteSpace=wrap;html=1;" vertex="1" parent="1">
          <mxGeometry x="515" y="350" width="120" height="60" as="geometry" />
        </mxCell>
        <mxCell id="7U7Kn77SNxa2jXnck1T4-19" value="нет" style="text;html=1;strokeColor=none;fillColor=none;align=center;verticalAlign=middle;whiteSpace=wrap;rounded=0;" vertex="1" parent="1">
          <mxGeometry x="450" y="350" width="60" height="30" as="geometry" />
        </mxCell>
        <mxCell id="7U7Kn77SNxa2jXnck1T4-20" value="нет" style="text;html=1;strokeColor=none;fillColor=none;align=center;verticalAlign=middle;whiteSpace=wrap;rounded=0;" vertex="1" parent="1">
          <mxGeometry x="270" y="470" width="60" height="30" as="geometry" />
        </mxCell>
        <mxCell id="7U7Kn77SNxa2jXnck1T4-23" style="edgeStyle=orthogonalEdgeStyle;rounded=0;orthogonalLoop=1;jettySize=auto;html=1;entryX=0.5;entryY=1;entryDx=0;entryDy=0;" edge="1" parent="1" source="7U7Kn77SNxa2jXnck1T4-22" target="7U7Kn77SNxa2jXnck1T4-14">
          <mxGeometry relative="1" as="geometry" />
        </mxCell>
        <mxCell id="7U7Kn77SNxa2jXnck1T4-22" value="end+= arr[size]" style="rounded=0;whiteSpace=wrap;html=1;" vertex="1" parent="1">
          <mxGeometry x="340" y="620" width="120" height="60" as="geometry" />
        </mxCell>
        <mxCell id="7U7Kn77SNxa2jXnck1T4-30" style="edgeStyle=orthogonalEdgeStyle;rounded=0;orthogonalLoop=1;jettySize=auto;html=1;exitX=1;exitY=1;exitDx=0;exitDy=0;" edge="1" parent="1" source="7U7Kn77SNxa2jXnck1T4-24">
          <mxGeometry relative="1" as="geometry">
            <mxPoint x="400" y="610" as="targetPoint" />
          </mxGeometry>
        </mxCell>
        <mxCell id="7U7Kn77SNxa2jXnck1T4-24" value="да" style="text;html=1;strokeColor=none;fillColor=none;align=center;verticalAlign=middle;whiteSpace=wrap;rounded=0;" vertex="1" parent="1">
          <mxGeometry x="340" y="570" width="60" height="30" as="geometry" />
        </mxCell>
        <mxCell id="7U7Kn77SNxa2jXnck1T4-27" value="finish" style="ellipse;whiteSpace=wrap;html=1;rounded=0;" vertex="1" parent="1">
          <mxGeometry x="535" y="480" width="80" height="80" as="geometry" />
        </mxCell>
        <mxCell id="7U7Kn77SNxa2jXnck1T4-29" value="size &amp;lt; длине arr" style="rhombus;whiteSpace=wrap;html=1;" vertex="1" parent="1">
          <mxGeometry x="340" y="330" width="120" height="100" as="geometry" />
        </mxCell>
      </root>
    </mxGraphModel>
  </diagram>
</mxfile>
